<svg width="30" height="30" viewBox="0 0 30 30" fill="none" xmlns="http://www.w3.org/2000/svg">
<g clip-path="url(#clip0_520_2482)">
<path d="M19.1252 28.1582C20.0872 28.1582 20.0872 29.6212 19.1252 29.6212H1.49813C1.09419 29.6212 0.766785 29.2935 0.766785 28.8895V6.86096C0.766785 6.65899 0.848636 6.4758 0.980802 6.34363L6.73163 0.593156C6.87443 0.45036 7.06152 0.378784 7.24861 0.378784H23.7921C24.196 0.378784 24.5238 0.706543 24.5238 1.11048V13.9147C24.5238 14.877 23.0607 14.877 23.0607 13.9147V1.84183H7.55156L2.22983 7.16392V28.1582H19.1252ZM6.68061 21.71C5.71824 21.71 5.71824 20.247 6.68061 20.247H17.547C18.5093 20.247 18.5093 21.71 17.547 21.71H6.68061ZM6.68061 11.9772C5.71824 11.9772 5.71824 10.5141 6.68061 10.5141H17.547C18.5093 10.5141 18.5093 11.9772 17.547 11.9772H6.68061ZM6.68061 15.2215C5.71824 15.2215 5.71824 13.7584 6.68061 13.7584H17.547C18.5093 13.7584 18.5093 15.2215 17.547 15.2215H6.68061ZM6.68061 18.4657C5.71824 18.4657 5.71824 17.0027 6.68061 17.0027H17.547C18.5093 17.0027 18.5093 18.4657 17.547 18.4657H6.68061ZM6.68061 8.7329C5.71824 8.7329 5.71824 7.26986 6.68061 7.26986H17.547C18.5093 7.26986 18.5093 8.7329 17.547 8.7329H6.68061ZM24.2757 17.1749C26.0417 17.1749 27.4732 18.6064 27.4732 20.3724C27.4732 21.0137 27.2844 21.6108 26.9595 22.1111C28.2907 22.9945 29.1376 24.4526 29.2318 26.0513C29.2881 27.0101 27.8304 27.0955 27.7744 26.1371C27.6997 24.8724 26.9733 23.746 25.8564 23.1521C25.3901 23.4179 24.8508 23.5696 24.2757 23.5696C23.6535 23.5696 23.0728 23.392 22.5817 23.0845C21.3968 23.6557 20.6116 24.8221 20.534 26.1371C20.4776 27.0955 19.0203 27.0101 19.0766 26.0513C19.1755 24.3796 20.0953 22.8666 21.5243 22.002C21.2412 21.5247 21.0786 20.9677 21.0786 20.3724C21.0786 18.6068 22.5101 17.1749 24.2757 17.1749ZM24.2757 18.6379C23.318 18.6379 22.5416 19.4146 22.5416 20.3724C22.5416 21.3302 23.318 22.1065 24.2757 22.1065C25.2335 22.1065 26.0102 21.3302 26.0102 20.3724C26.0102 19.4146 25.2339 18.6379 24.2757 18.6379Z" fill="#2D2D2D"/>
</g>
<defs>
<clipPath id="clip0_520_2482">
<rect width="30" height="30" fill="white"/>
</clipPath>
</defs>
</svg>
