<svg width="24" height="24" viewBox="0 0 24 24" fill="none" xmlns="http://www.w3.org/2000/svg">
<path fill-rule="evenodd" clip-rule="evenodd" d="M22 12.0004C22 17.5232 17.5228 22.0004 12 22.0004C6.47715 22.0004 2 17.5232 2 12.0004C2 6.47752 6.47715 2.00037 12 2.00037C17.5228 2.00037 22 6.47752 22 12.0004ZM7.005 9.00037C7.005 8.45037 7.45 8.00037 8 8.00037H16C16.55 8.00037 17 8.45037 17 9.00037V15.0004C17 15.5504 16.55 16.0004 16 16.0004H8C7.45 16.0004 7 15.5504 7 15.0004L7.005 9.00037ZM12 12.5004L8.00001 10.0003V15.0004H16V10.0003L12 12.5004ZM12 11.5004L8.00001 9.00038H16L12 11.5004Z" fill="#2D2D2D"/>
</svg>
