<svg width="24" height="24" viewBox="0 0 24 24" fill="none" xmlns="http://www.w3.org/2000/svg">
<path d="M3 9.00006H21M17 13.0015L7 13.0001M10.3333 17.0006L7 17.0001M7 3.00006V5.00006M17 3.00006V5.00006M6.2 21.0001H17.8C18.9201 21.0001 19.4802 21.0001 19.908 20.7821C20.2843 20.5904 20.5903 20.2844 20.782 19.9081C21 19.4803 21 18.9202 21 17.8001V8.20006C21 7.07995 21 6.5199 20.782 6.09208C20.5903 5.71575 20.2843 5.40979 19.908 5.21805C19.4802 5.00006 18.9201 5.00006 17.8 5.00006H6.2C5.0799 5.00006 4.51984 5.00006 4.09202 5.21805C3.71569 5.40979 3.40973 5.71575 3.21799 6.09208C3 6.5199 3 7.07995 3 8.20006V17.8001C3 18.9202 3 19.4803 3.21799 19.9081C3.40973 20.2844 3.71569 20.5904 4.09202 20.7821C4.51984 21.0001 5.07989 21.0001 6.2 21.0001Z" stroke="#29BC89" stroke-width="1.5" stroke-linecap="round" stroke-linejoin="round"/>
</svg>
