<svg width="24" height="24" viewBox="0 0 24 24" fill="none" xmlns="http://www.w3.org/2000/svg">
<g clip-path="url(#clip0_527_24)">
<path fill-rule="evenodd" clip-rule="evenodd" d="M0 12.0004C0 5.37224 5.37188 0.000366211 12 0.000366211C18.6281 0.000366211 24 5.37224 24 12.0004C24 18.6285 18.6281 24.0004 12 24.0004C5.37188 24.0004 0 18.6285 0 12.0004ZM14.3223 5.96227L18.0381 9.67811C18.654 10.294 19 11.1294 19 12.0004C19 12.8714 18.654 13.7067 18.0381 14.3226L14.3223 18.0385C13.7064 18.6544 12.871 19.0004 12 19.0004C11.129 19.0004 10.2936 18.6544 9.67775 18.0385L5.96191 14.3226C5.34601 13.7067 5 12.8714 5 12.0004C5 11.1294 5.34601 10.294 5.96191 9.67811L9.67775 5.96227C10.2936 5.34637 11.129 5.00037 12 5.00037C12.871 5.00037 13.7064 5.34637 14.3223 5.96227ZM11.1176 14.1308C11.3973 14.2466 11.6972 14.3063 12 14.3063C12.6116 14.3063 13.1981 14.0633 13.6305 13.6309C14.063 13.1985 14.3059 12.6119 14.3059 12.0004C14.3059 11.3888 14.063 10.8023 13.6305 10.3698C13.1981 9.93739 12.6116 9.69445 12 9.69445C11.6972 9.69445 11.3973 9.75409 11.1176 9.86997C10.8378 9.98586 10.5836 10.1557 10.3695 10.3698C10.1553 10.584 9.98549 10.8382 9.86961 11.1179C9.75372 11.3977 9.69408 11.6975 9.69408 12.0004C9.69408 12.3032 9.75372 12.603 9.86961 12.8828C9.98549 13.1626 10.1553 13.4168 10.3695 13.6309C10.5836 13.845 10.8378 14.0149 11.1176 14.1308Z" fill="#CDCDCD"/>
</g>
<defs>
<clipPath id="clip0_527_24">
<rect width="24" height="24" fill="white" transform="translate(0 0.000366211)"/>
</clipPath>
</defs>
</svg>
