<svg width="24" height="24" viewBox="0 0 24 24" fill="none" xmlns="http://www.w3.org/2000/svg">
<g clip-path="url(#clip0_479_181)">
<path d="M12 14.1097C13.1625 14.1097 14.114 13.1628 14.114 11.9957C14.114 11.5363 13.964 11.1097 13.7156 10.7628C13.3312 10.2332 12.7078 9.88159 12.0047 9.88159C11.3015 9.88159 10.6781 10.2285 10.2937 10.7628C10.0453 11.1097 9.89528 11.5363 9.89528 11.9957C9.89059 13.1628 10.8375 14.1097 12 14.1097Z" fill="#CDCDCD"/>
<path d="M16.6125 9.41755V7.64568V7.38318H16.35L14.5781 7.38787L14.5875 9.42224L16.6125 9.41755Z" fill="#CDCDCD"/>
<path d="M15.2812 12.0004C15.2812 13.8098 13.8094 15.2816 12 15.2816C10.1906 15.2816 8.71875 13.8098 8.71875 12.0004C8.71875 11.5645 8.80781 11.1473 8.9625 10.7676H7.17188V15.6801C7.17188 16.3129 7.6875 16.8285 8.32031 16.8285H15.6797C16.3125 16.8285 16.8281 16.3129 16.8281 15.6801V10.7676H15.0375C15.1969 11.1473 15.2812 11.5645 15.2812 12.0004Z" fill="#CDCDCD"/>
<path d="M12 0.000366211C5.37188 0.000366211 0 5.37224 0 12.0004C0 18.6285 5.37188 24.0004 12 24.0004C18.6281 24.0004 24 18.6285 24 12.0004C24 5.37224 18.6281 0.000366211 12 0.000366211ZM18 10.7676V15.6801C18 16.9597 16.9594 18.0004 15.6797 18.0004H8.32031C7.04063 18.0004 6 16.9597 6 15.6801V10.7676V8.31599C6 7.0363 7.04063 5.99568 8.32031 5.99568H15.6797C16.9594 5.99568 18 7.0363 18 8.31599V10.7676Z" fill="#CDCDCD"/>
</g>
<defs>
<clipPath id="clip0_479_181">
<rect width="24" height="24" fill="white" transform="translate(0 0.000366211)"/>
</clipPath>
</defs>
</svg>
