<svg width="30" height="30" viewBox="0 0 30 30" fill="none" xmlns="http://www.w3.org/2000/svg">
<g clip-path="url(#clip0_520_2440)">
<path d="M19.1252 28.1582C20.0872 28.1582 20.0872 29.6212 19.1252 29.6212H1.49819C1.09425 29.6212 0.766846 29.2935 0.766846 28.8895V6.86096C0.766846 6.65899 0.848697 6.4758 0.980863 6.34363L6.73169 0.593156C6.87449 0.45036 7.06158 0.378784 7.24867 0.378784H23.7921C24.1961 0.378784 24.5238 0.706543 24.5238 1.11048V13.9147C24.5238 14.877 23.0608 14.877 23.0608 13.9147V1.84183H7.55162L2.22989 7.16392V28.1582H19.1252ZM6.68067 21.71C5.7183 21.71 5.7183 20.247 6.68067 20.247H17.547C18.5094 20.247 18.5094 21.71 17.547 21.71H6.68067ZM6.68067 11.9772C5.7183 11.9772 5.7183 10.5141 6.68067 10.5141H17.547C18.5094 10.5141 18.5094 11.9772 17.547 11.9772H6.68067ZM6.68067 15.2215C5.7183 15.2215 5.7183 13.7584 6.68067 13.7584H17.547C18.5094 13.7584 18.5094 15.2215 17.547 15.2215H6.68067ZM6.68067 18.4657C5.7183 18.4657 5.7183 17.0027 6.68067 17.0027H17.547C18.5094 17.0027 18.5094 18.4657 17.547 18.4657H6.68067ZM6.68067 8.7329C5.7183 8.7329 5.7183 7.26986 6.68067 7.26986H17.547C18.5094 7.26986 18.5094 8.7329 17.547 8.7329H6.68067ZM24.2758 17.1749C26.0418 17.1749 27.4733 18.6064 27.4733 20.3724C27.4733 21.0137 27.2845 21.6108 26.9595 22.1111C28.2908 22.9945 29.1376 24.4526 29.2319 26.0513C29.2882 27.0101 27.8305 27.0955 27.7745 26.1371C27.6997 24.8724 26.9733 23.746 25.8565 23.1521C25.3902 23.4179 24.8509 23.5696 24.2758 23.5696C23.6536 23.5696 23.0728 23.392 22.5817 23.0845C21.3968 23.6557 20.6116 24.8221 20.534 26.1371C20.4777 27.0955 19.0203 27.0101 19.0767 26.0513C19.1755 24.3796 20.0954 22.8666 21.5244 22.002C21.2413 21.5247 21.0787 20.9677 21.0787 20.3724C21.0787 18.6068 22.5102 17.1749 24.2758 17.1749ZM24.2758 18.6379C23.318 18.6379 22.5417 19.4146 22.5417 20.3724C22.5417 21.3302 23.318 22.1065 24.2758 22.1065C25.2336 22.1065 26.0103 21.3302 26.0103 20.3724C26.0103 19.4146 25.2339 18.6379 24.2758 18.6379Z" fill="#CDCDCD"/>
</g>
<defs>
<clipPath id="clip0_520_2440">
<rect width="30" height="30" fill="white"/>
</clipPath>
</defs>
</svg>
