<svg width="24" height="24" viewBox="0 0 24 24" fill="none" xmlns="http://www.w3.org/2000/svg">
<g clip-path="url(#clip0_453_2814)">
<path d="M12 0C5.37188 0 0 5.37188 0 12C0 18.6281 5.37188 24 12 24C18.6281 24 24 18.6281 24 12C24 5.37188 18.6281 0 12 0ZM8.64375 17.0203H6.30469V9.53437H8.64375V17.0203ZM7.41094 8.59687H7.39219C6.54375 8.59687 5.99531 8.025 5.99531 7.29844C5.99531 6.55781 6.5625 6 7.425 6C8.2875 6 8.81719 6.55781 8.83594 7.29844C8.84062 8.02031 8.29219 8.59687 7.41094 8.59687ZM18 17.0203H15.3469V13.1484C15.3469 12.1359 14.9344 11.4422 14.0203 11.4422C13.3219 11.4422 12.9328 11.9109 12.7547 12.3609C12.6891 12.5203 12.6984 12.7453 12.6984 12.975V17.0203H10.0688C10.0688 17.0203 10.1016 10.1578 10.0688 9.53437H12.6984V10.7109C12.8531 10.1953 13.6922 9.46406 15.0328 9.46406C16.6969 9.46406 18 10.5422 18 12.8578V17.0203Z" fill="#2D2D2D"/>
</g>
<defs>
<clipPath id="clip0_453_2814">
<rect width="24" height="24" fill="white"/>
</clipPath>
</defs>
</svg>
