<svg width="30" height="30" viewBox="0 0 30 30" fill="none" xmlns="http://www.w3.org/2000/svg">
<path d="M18.2173 1.3882L17.2282 3.36645C17.204 3.41482 17.1648 3.45406 17.1165 3.47825L15.1382 4.46737C14.9538 4.55951 14.9538 4.82246 15.1382 4.91459L17.1165 5.90371C17.1648 5.92791 17.204 5.96714 17.2282 6.01551L18.2173 7.99377C18.3095 8.17804 18.5725 8.17804 18.6646 7.99377L19.6537 6.01551C19.6778 5.96714 19.7171 5.9279 19.7655 5.90371L21.7437 4.91459C21.928 4.82246 21.928 4.55951 21.7437 4.46737L19.7655 3.47825C19.7171 3.45406 19.6778 3.41482 19.6537 3.36645L18.6646 1.3882C18.5725 1.20393 18.3095 1.20393 18.2173 1.3882Z" fill="#2D2D2D"/>
<path d="M24.0524 6.34026L23.0791 9.26016C23.0543 9.33481 22.9956 9.39339 22.921 9.41827L20.0011 10.3916C19.7731 10.4675 19.7731 10.7899 20.0011 10.8659L22.921 11.8392C22.9956 11.8641 23.0543 11.9227 23.0791 11.9973L24.0524 14.9172C24.1284 15.1451 24.4508 15.1451 24.5268 14.9172L25.5 11.9973C25.525 11.9227 25.5835 11.8641 25.6581 11.8392L28.5781 10.8659C28.806 10.7899 28.806 10.4675 28.5781 10.3916L25.6581 9.41827C25.5835 9.39339 25.525 9.33481 25.5 9.26016L24.5268 6.34026C24.4508 6.11233 24.1284 6.11233 24.0524 6.34026Z" fill="#2D2D2D"/>
<path fill-rule="evenodd" clip-rule="evenodd" d="M13.0094 17.0802C16.5435 20.6144 22.0646 20.9204 25.8301 17.9629C25.8768 17.9262 25.9231 17.8891 25.9693 17.8515C26.1435 17.7092 26.3138 17.5599 26.4796 17.4032C26.547 17.3397 26.6136 17.2751 26.6795 17.2092C27.3196 16.569 28.633 16.9472 28.4396 17.8316C28.3729 18.1372 28.2956 18.4396 28.2084 18.7381C28.1566 18.9151 28.1014 19.0909 28.0426 19.2652C28.0266 19.3127 28.0103 19.3604 27.9938 19.4077C26.1221 24.7677 20.9858 28.7504 15 28.7504C7.40609 28.7504 1.25 22.5942 1.25 15.0004C1.25 8.91643 5.36358 3.72822 10.8361 1.92815L10.9031 1.9063C11.0231 1.86751 11.1438 1.83035 11.2651 1.79483C11.587 1.70057 11.9133 1.61797 12.2433 1.54751C13.1724 1.34917 13.5523 2.73842 12.8804 3.41018C12.8138 3.47683 12.7484 3.54423 12.6841 3.61236C12.557 3.74721 12.4346 3.88492 12.3169 4.02528C12.2911 4.05606 12.2655 4.08696 12.2402 4.11798C9.16208 7.88555 9.43071 13.5015 13.0094 17.0802ZM11.2416 18.848C14.656 22.2624 19.5905 23.2874 23.859 21.8366C21.7851 24.503 18.5625 26.2504 15 26.2504C8.7868 26.2504 3.75 21.2136 3.75 15.0004C3.75 11.3645 5.57066 8.08951 8.32573 6.02307C6.76961 10.3384 7.77175 15.3781 11.2416 18.848Z" fill="#2D2D2D"/>
</svg>
