<svg width="43" height="25" viewBox="0 0 43 25" fill="none" xmlns="http://www.w3.org/2000/svg">
<path d="M20.344 17.088C20.536 17.792 20.632 18.496 20.632 19.168C20.632 21.792 18.52 24.32 15.672 24.32C8.952 24.32 10.296 15.552 7.8 13.184V24H0.056V0.959999H10.616C16.952 0.959999 20.184 4 20.184 7.008C20.184 9.856 17.304 12.704 11.416 12.928C14.36 14.624 14.296 17.664 17.4 17.664C18.36 17.664 19.608 17.472 20.344 17.088ZM7.8 2.24V11.648H9.336C11.288 11.648 12.12 9.536 12.12 7.328C12.12 4.864 11.064 2.24 9.336 2.24H7.8ZM24.2498 4.128V5.344C24.2498 11.808 24.6338 18.528 30.3618 24H22.6497V0.959999H31.1938L41.2098 20.832V19.616C41.2098 13.152 40.8258 6.432 35.0978 0.959999H42.8098V24H34.2978L24.2498 4.128Z" fill="#282828"/>
</svg>
